<mxfile host="app.diagrams.net" modified="2020-11-24T07:08:38.611Z" agent="5.0 (Windows NT 10.0; Win64; x64) AppleWebKit/537.36 (KHTML, like Gecko) Chrome/86.0.4240.198 Safari/537.36" etag="VaZKxGw6pkBzhrqtqerh" version="13.10.1" type="github">
  <diagram id="bXnBSR46_XU0AXeKFUVb" name="Page-1">
    <mxGraphModel dx="868" dy="482" grid="1" gridSize="10" guides="1" tooltips="1" connect="1" arrows="1" fold="1" page="1" pageScale="1" pageWidth="827" pageHeight="1169" math="0" shadow="0">
      <root>
        <mxCell id="0" />
        <mxCell id="1" parent="0" />
        <mxCell id="ivXI1PMTXamHEsgvzTum-8" style="edgeStyle=orthogonalEdgeStyle;rounded=0;orthogonalLoop=1;jettySize=auto;html=1;exitX=1;exitY=0.5;exitDx=0;exitDy=0;entryX=0;entryY=0.5;entryDx=0;entryDy=0;" edge="1" parent="1" source="ivXI1PMTXamHEsgvzTum-1" target="ivXI1PMTXamHEsgvzTum-3">
          <mxGeometry relative="1" as="geometry" />
        </mxCell>
        <mxCell id="ivXI1PMTXamHEsgvzTum-1" value="Web/App业务交互" style="whiteSpace=wrap;html=1;aspect=fixed;" vertex="1" parent="1">
          <mxGeometry x="70" y="60" width="70" height="70" as="geometry" />
        </mxCell>
        <mxCell id="ivXI1PMTXamHEsgvzTum-66" style="edgeStyle=orthogonalEdgeStyle;rounded=0;orthogonalLoop=1;jettySize=auto;html=1;exitX=1;exitY=0.5;exitDx=0;exitDy=0;entryX=0;entryY=0.5;entryDx=0;entryDy=0;" edge="1" parent="1" source="ivXI1PMTXamHEsgvzTum-2" target="ivXI1PMTXamHEsgvzTum-3">
          <mxGeometry relative="1" as="geometry" />
        </mxCell>
        <mxCell id="ivXI1PMTXamHEsgvzTum-67" style="edgeStyle=orthogonalEdgeStyle;rounded=0;orthogonalLoop=1;jettySize=auto;html=1;entryX=0.5;entryY=0;entryDx=0;entryDy=0;" edge="1" parent="1" source="ivXI1PMTXamHEsgvzTum-2" target="ivXI1PMTXamHEsgvzTum-4">
          <mxGeometry relative="1" as="geometry" />
        </mxCell>
        <mxCell id="ivXI1PMTXamHEsgvzTum-2" value="Web/App前端埋点" style="whiteSpace=wrap;html=1;aspect=fixed;" vertex="1" parent="1">
          <mxGeometry x="70" y="202.5" width="70" height="70" as="geometry" />
        </mxCell>
        <mxCell id="ivXI1PMTXamHEsgvzTum-15" style="edgeStyle=orthogonalEdgeStyle;rounded=0;orthogonalLoop=1;jettySize=auto;html=1;exitX=1;exitY=0.5;exitDx=0;exitDy=0;entryX=0;entryY=0.5;entryDx=0;entryDy=0;" edge="1" parent="1" source="ivXI1PMTXamHEsgvzTum-3" target="ivXI1PMTXamHEsgvzTum-6">
          <mxGeometry relative="1" as="geometry" />
        </mxCell>
        <mxCell id="ivXI1PMTXamHEsgvzTum-16" style="edgeStyle=orthogonalEdgeStyle;rounded=0;orthogonalLoop=1;jettySize=auto;html=1;exitX=1;exitY=0.5;exitDx=0;exitDy=0;" edge="1" parent="1" source="ivXI1PMTXamHEsgvzTum-3" target="ivXI1PMTXamHEsgvzTum-7">
          <mxGeometry relative="1" as="geometry" />
        </mxCell>
        <mxCell id="ivXI1PMTXamHEsgvzTum-3" value="Nginx" style="rounded=1;whiteSpace=wrap;html=1;" vertex="1" parent="1">
          <mxGeometry x="180" y="72.5" width="60" height="45" as="geometry" />
        </mxCell>
        <mxCell id="ivXI1PMTXamHEsgvzTum-64" style="edgeStyle=orthogonalEdgeStyle;rounded=0;orthogonalLoop=1;jettySize=auto;html=1;entryX=0;entryY=0.5;entryDx=0;entryDy=0;" edge="1" parent="1" source="ivXI1PMTXamHEsgvzTum-4" target="ivXI1PMTXamHEsgvzTum-27">
          <mxGeometry relative="1" as="geometry" />
        </mxCell>
        <mxCell id="ivXI1PMTXamHEsgvzTum-65" style="edgeStyle=orthogonalEdgeStyle;rounded=0;orthogonalLoop=1;jettySize=auto;html=1;entryX=0;entryY=0.5;entryDx=0;entryDy=0;" edge="1" parent="1" source="ivXI1PMTXamHEsgvzTum-4" target="ivXI1PMTXamHEsgvzTum-28">
          <mxGeometry relative="1" as="geometry" />
        </mxCell>
        <mxCell id="ivXI1PMTXamHEsgvzTum-4" value="Nginx" style="rounded=1;whiteSpace=wrap;html=1;" vertex="1" parent="1">
          <mxGeometry x="140" y="330" width="70" height="45" as="geometry" />
        </mxCell>
        <mxCell id="ivXI1PMTXamHEsgvzTum-24" style="edgeStyle=orthogonalEdgeStyle;rounded=0;orthogonalLoop=1;jettySize=auto;html=1;exitX=1;exitY=0.5;exitDx=0;exitDy=0;entryX=0;entryY=0.25;entryDx=0;entryDy=0;" edge="1" parent="1" source="ivXI1PMTXamHEsgvzTum-6" target="ivXI1PMTXamHEsgvzTum-17">
          <mxGeometry relative="1" as="geometry" />
        </mxCell>
        <mxCell id="ivXI1PMTXamHEsgvzTum-6" value="业务服务器&lt;br&gt;（SpringBoot）" style="rounded=0;whiteSpace=wrap;html=1;" vertex="1" parent="1">
          <mxGeometry x="324" y="20" width="86" height="40" as="geometry" />
        </mxCell>
        <mxCell id="ivXI1PMTXamHEsgvzTum-25" style="edgeStyle=orthogonalEdgeStyle;rounded=0;orthogonalLoop=1;jettySize=auto;html=1;exitX=1;exitY=0.5;exitDx=0;exitDy=0;entryX=0;entryY=0.5;entryDx=0;entryDy=0;" edge="1" parent="1" source="ivXI1PMTXamHEsgvzTum-7" target="ivXI1PMTXamHEsgvzTum-17">
          <mxGeometry relative="1" as="geometry" />
        </mxCell>
        <mxCell id="ivXI1PMTXamHEsgvzTum-7" value="业务服务器&lt;br&gt;（SpringBoot）" style="rounded=0;whiteSpace=wrap;html=1;" vertex="1" parent="1">
          <mxGeometry x="324" y="117.5" width="90" height="45" as="geometry" />
        </mxCell>
        <mxCell id="ivXI1PMTXamHEsgvzTum-42" style="edgeStyle=orthogonalEdgeStyle;rounded=0;orthogonalLoop=1;jettySize=auto;html=1;entryX=0;entryY=0.5;entryDx=0;entryDy=0;" edge="1" parent="1" source="ivXI1PMTXamHEsgvzTum-17" target="ivXI1PMTXamHEsgvzTum-26">
          <mxGeometry relative="1" as="geometry" />
        </mxCell>
        <mxCell id="ivXI1PMTXamHEsgvzTum-17" value="MySQL业务数据" style="rounded=0;whiteSpace=wrap;html=1;" vertex="1" parent="1">
          <mxGeometry x="490" y="100" width="110" height="50" as="geometry" />
        </mxCell>
        <mxCell id="ivXI1PMTXamHEsgvzTum-18" value="业务日志数据" style="rounded=0;whiteSpace=wrap;html=1;" vertex="1" parent="1">
          <mxGeometry x="470" y="15" width="110" height="50" as="geometry" />
        </mxCell>
        <mxCell id="ivXI1PMTXamHEsgvzTum-19" value=":&lt;b&gt;业务交互数据&lt;/b&gt;：业务流程中产生的登录、订单、用户、商品、支付等相关的数据，通常存储在DB中，包括MySQL、Oracle" style="text;html=1;strokeColor=none;fillColor=none;align=center;verticalAlign=middle;whiteSpace=wrap;rounded=0;" vertex="1" parent="1">
          <mxGeometry x="630" y="10" width="180" height="70" as="geometry" />
        </mxCell>
        <mxCell id="ivXI1PMTXamHEsgvzTum-68" style="edgeStyle=orthogonalEdgeStyle;rounded=0;orthogonalLoop=1;jettySize=auto;html=1;exitX=1;exitY=0.5;exitDx=0;exitDy=0;entryX=0.5;entryY=0;entryDx=0;entryDy=0;" edge="1" parent="1" source="ivXI1PMTXamHEsgvzTum-26" target="ivXI1PMTXamHEsgvzTum-37">
          <mxGeometry relative="1" as="geometry" />
        </mxCell>
        <mxCell id="ivXI1PMTXamHEsgvzTum-26" value="Sqoop" style="rounded=1;whiteSpace=wrap;html=1;" vertex="1" parent="1">
          <mxGeometry x="685" y="152.5" width="70" height="50" as="geometry" />
        </mxCell>
        <mxCell id="ivXI1PMTXamHEsgvzTum-63" value="" style="edgeStyle=orthogonalEdgeStyle;rounded=0;orthogonalLoop=1;jettySize=auto;html=1;" edge="1" parent="1" source="ivXI1PMTXamHEsgvzTum-27" target="ivXI1PMTXamHEsgvzTum-29">
          <mxGeometry relative="1" as="geometry" />
        </mxCell>
        <mxCell id="ivXI1PMTXamHEsgvzTum-27" value="业务服务器&lt;br&gt;（SpringBoot）" style="rounded=0;whiteSpace=wrap;html=1;" vertex="1" parent="1">
          <mxGeometry x="260" y="252.5" width="80" height="48.13" as="geometry" />
        </mxCell>
        <mxCell id="ivXI1PMTXamHEsgvzTum-57" value="" style="edgeStyle=orthogonalEdgeStyle;rounded=0;orthogonalLoop=1;jettySize=auto;html=1;" edge="1" parent="1" source="ivXI1PMTXamHEsgvzTum-28" target="ivXI1PMTXamHEsgvzTum-30">
          <mxGeometry relative="1" as="geometry" />
        </mxCell>
        <mxCell id="ivXI1PMTXamHEsgvzTum-28" value="业务服务器&lt;br&gt;（SpringBoot）" style="rounded=0;whiteSpace=wrap;html=1;" vertex="1" parent="1">
          <mxGeometry x="260" y="387.5" width="80" height="43.75" as="geometry" />
        </mxCell>
        <mxCell id="ivXI1PMTXamHEsgvzTum-54" value="" style="edgeStyle=orthogonalEdgeStyle;rounded=0;orthogonalLoop=1;jettySize=auto;html=1;" edge="1" parent="1" source="ivXI1PMTXamHEsgvzTum-29" target="ivXI1PMTXamHEsgvzTum-31">
          <mxGeometry relative="1" as="geometry" />
        </mxCell>
        <mxCell id="ivXI1PMTXamHEsgvzTum-29" value="LogFile" style="rounded=0;whiteSpace=wrap;html=1;" vertex="1" parent="1">
          <mxGeometry x="382.5" y="254.38" width="69" height="43.75" as="geometry" />
        </mxCell>
        <mxCell id="ivXI1PMTXamHEsgvzTum-53" value="" style="edgeStyle=orthogonalEdgeStyle;rounded=0;orthogonalLoop=1;jettySize=auto;html=1;" edge="1" parent="1" source="ivXI1PMTXamHEsgvzTum-30" target="ivXI1PMTXamHEsgvzTum-32">
          <mxGeometry relative="1" as="geometry" />
        </mxCell>
        <mxCell id="ivXI1PMTXamHEsgvzTum-30" value="LogFile" style="rounded=0;whiteSpace=wrap;html=1;" vertex="1" parent="1">
          <mxGeometry x="384" y="386.25" width="66" height="45" as="geometry" />
        </mxCell>
        <mxCell id="ivXI1PMTXamHEsgvzTum-51" value="" style="edgeStyle=orthogonalEdgeStyle;rounded=0;orthogonalLoop=1;jettySize=auto;html=1;" edge="1" parent="1" source="ivXI1PMTXamHEsgvzTum-31" target="ivXI1PMTXamHEsgvzTum-33">
          <mxGeometry relative="1" as="geometry" />
        </mxCell>
        <mxCell id="ivXI1PMTXamHEsgvzTum-31" value="生产Flume" style="rounded=0;whiteSpace=wrap;html=1;" vertex="1" parent="1">
          <mxGeometry x="490" y="252.5" width="70" height="47.5" as="geometry" />
        </mxCell>
        <mxCell id="ivXI1PMTXamHEsgvzTum-52" value="" style="edgeStyle=orthogonalEdgeStyle;rounded=0;orthogonalLoop=1;jettySize=auto;html=1;" edge="1" parent="1" source="ivXI1PMTXamHEsgvzTum-32" target="ivXI1PMTXamHEsgvzTum-35">
          <mxGeometry relative="1" as="geometry" />
        </mxCell>
        <mxCell id="ivXI1PMTXamHEsgvzTum-32" value="生产Flume" style="rounded=0;whiteSpace=wrap;html=1;" vertex="1" parent="1">
          <mxGeometry x="490" y="385" width="70" height="47.5" as="geometry" />
        </mxCell>
        <mxCell id="ivXI1PMTXamHEsgvzTum-33" value="kafka" style="rounded=0;whiteSpace=wrap;html=1;" vertex="1" parent="1">
          <mxGeometry x="590" y="252.5" width="70" height="47.5" as="geometry" />
        </mxCell>
        <mxCell id="ivXI1PMTXamHEsgvzTum-50" value="" style="edgeStyle=orthogonalEdgeStyle;rounded=0;orthogonalLoop=1;jettySize=auto;html=1;" edge="1" parent="1" source="ivXI1PMTXamHEsgvzTum-34" target="ivXI1PMTXamHEsgvzTum-36">
          <mxGeometry relative="1" as="geometry" />
        </mxCell>
        <mxCell id="ivXI1PMTXamHEsgvzTum-34" value="kafka" style="rounded=0;whiteSpace=wrap;html=1;" vertex="1" parent="1">
          <mxGeometry x="590" y="320" width="70" height="47.5" as="geometry" />
        </mxCell>
        <mxCell id="ivXI1PMTXamHEsgvzTum-73" style="edgeStyle=orthogonalEdgeStyle;rounded=0;orthogonalLoop=1;jettySize=auto;html=1;entryX=0;entryY=0.5;entryDx=0;entryDy=0;" edge="1" parent="1" source="ivXI1PMTXamHEsgvzTum-35" target="ivXI1PMTXamHEsgvzTum-71">
          <mxGeometry relative="1" as="geometry" />
        </mxCell>
        <mxCell id="ivXI1PMTXamHEsgvzTum-35" value="kafka" style="rounded=0;whiteSpace=wrap;html=1;" vertex="1" parent="1">
          <mxGeometry x="590" y="385" width="70" height="47.5" as="geometry" />
        </mxCell>
        <mxCell id="ivXI1PMTXamHEsgvzTum-44" style="edgeStyle=orthogonalEdgeStyle;rounded=0;orthogonalLoop=1;jettySize=auto;html=1;exitX=1;exitY=0.5;exitDx=0;exitDy=0;" edge="1" parent="1" source="ivXI1PMTXamHEsgvzTum-36">
          <mxGeometry relative="1" as="geometry">
            <mxPoint x="800" y="344" as="targetPoint" />
          </mxGeometry>
        </mxCell>
        <mxCell id="ivXI1PMTXamHEsgvzTum-36" value="消费Flume" style="rounded=0;whiteSpace=wrap;html=1;" vertex="1" parent="1">
          <mxGeometry x="685" y="320" width="70" height="47.5" as="geometry" />
        </mxCell>
        <mxCell id="ivXI1PMTXamHEsgvzTum-48" value="" style="edgeStyle=orthogonalEdgeStyle;rounded=0;orthogonalLoop=1;jettySize=auto;html=1;" edge="1" parent="1" source="ivXI1PMTXamHEsgvzTum-37" target="ivXI1PMTXamHEsgvzTum-38">
          <mxGeometry relative="1" as="geometry" />
        </mxCell>
        <mxCell id="ivXI1PMTXamHEsgvzTum-37" value="HDFS" style="rounded=0;whiteSpace=wrap;html=1;" vertex="1" parent="1">
          <mxGeometry x="800" y="320" width="70" height="47.5" as="geometry" />
        </mxCell>
        <mxCell id="ivXI1PMTXamHEsgvzTum-49" value="" style="edgeStyle=orthogonalEdgeStyle;rounded=0;orthogonalLoop=1;jettySize=auto;html=1;" edge="1" parent="1" source="ivXI1PMTXamHEsgvzTum-38" target="ivXI1PMTXamHEsgvzTum-39">
          <mxGeometry relative="1" as="geometry" />
        </mxCell>
        <mxCell id="ivXI1PMTXamHEsgvzTum-38" value="Hive&lt;br&gt;（ODS&lt;br&gt;DWD&lt;br&gt;DWS&lt;br&gt;ADS）" style="rounded=0;whiteSpace=wrap;html=1;" vertex="1" parent="1">
          <mxGeometry x="900" y="288.75" width="70" height="110" as="geometry" />
        </mxCell>
        <mxCell id="ivXI1PMTXamHEsgvzTum-69" style="edgeStyle=orthogonalEdgeStyle;rounded=0;orthogonalLoop=1;jettySize=auto;html=1;exitX=0.5;exitY=1;exitDx=0;exitDy=0;entryX=0.5;entryY=0;entryDx=0;entryDy=0;" edge="1" parent="1" source="ivXI1PMTXamHEsgvzTum-39" target="ivXI1PMTXamHEsgvzTum-40">
          <mxGeometry relative="1" as="geometry" />
        </mxCell>
        <mxCell id="ivXI1PMTXamHEsgvzTum-39" value="MyS&lt;span style=&quot;color: rgba(0 , 0 , 0 , 0) ; font-family: monospace ; font-size: 0px&quot;&gt;%3CmxGraphModel%3E%3Croot%3E%3CmxCell%20id%3D%220%22%2F%3E%3CmxCell%20id%3D%221%22%20parent%3D%220%22%2F%3E%3CmxCell%20id%3D%222%22%20value%3D%22HDFS%22%20style%3D%22rounded%3D0%3BwhiteSpace%3Dwrap%3Bhtml%3D1%3B%22%20vertex%3D%221%22%20parent%3D%221%22%3E%3CmxGeometry%20x%3D%22790%22%20y%3D%22320%22%20width%3D%2270%22%20height%3D%2247.5%22%20as%3D%22geometry%22%2F%3E%3C%2FmxCell%3E%3C%2Froot%3E%3C%2FmxGraphModel%3E&lt;/span&gt;QL" style="rounded=0;whiteSpace=wrap;html=1;" vertex="1" parent="1">
          <mxGeometry x="1000" y="320" width="70" height="47.5" as="geometry" />
        </mxCell>
        <mxCell id="ivXI1PMTXamHEsgvzTum-40" value="数据可视化&lt;span style=&quot;color: rgba(0 , 0 , 0 , 0) ; font-family: monospace ; font-size: 0px&quot;&gt;%3CmxGraphModel%3E%3Croot%3E%3CmxCell%20id%3D%220%22%2F%3E%3CmxCell%20id%3D%221%22%20parent%3D%220%22%2F%3E%3CmxCell%20id%3D%222%22%20value%3D%22HDFS%22%20style%3D%22rounded%3D0%3BwhiteSpace%3Dwrap%3Bhtml%3D1%3B%22%20vertex%3D%221%22%20parent%3D%221%22%3E%3CmxGeometry%20x%3D%22790%22%20y%3D%22320%22%20width%3D%2270%22%20height%3D%2247.5%22%20as%3D%22geometry%22%2F%3E%3C%2FmxCell%3E%3C%2Froot%3E%3C%2FmxGraphMo&lt;/span&gt;" style="rounded=0;whiteSpace=wrap;html=1;" vertex="1" parent="1">
          <mxGeometry x="1000" y="430" width="70" height="50" as="geometry" />
        </mxCell>
        <mxCell id="ivXI1PMTXamHEsgvzTum-74" style="edgeStyle=orthogonalEdgeStyle;rounded=0;orthogonalLoop=1;jettySize=auto;html=1;entryX=0;entryY=0.5;entryDx=0;entryDy=0;" edge="1" parent="1" source="ivXI1PMTXamHEsgvzTum-71" target="ivXI1PMTXamHEsgvzTum-72">
          <mxGeometry relative="1" as="geometry" />
        </mxCell>
        <mxCell id="ivXI1PMTXamHEsgvzTum-71" value="SparkStreaming" style="rounded=0;whiteSpace=wrap;html=1;" vertex="1" parent="1">
          <mxGeometry x="700" y="430" width="100" height="50" as="geometry" />
        </mxCell>
        <mxCell id="ivXI1PMTXamHEsgvzTum-72" value="HBase" style="rounded=0;whiteSpace=wrap;html=1;" vertex="1" parent="1">
          <mxGeometry x="850" y="431.25" width="70" height="47.5" as="geometry" />
        </mxCell>
        <mxCell id="ivXI1PMTXamHEsgvzTum-75" value="实时指标分析" style="text;html=1;strokeColor=none;fillColor=none;align=center;verticalAlign=middle;whiteSpace=wrap;rounded=0;" vertex="1" parent="1">
          <mxGeometry x="790" y="490" width="80" height="20" as="geometry" />
        </mxCell>
        <mxCell id="ivXI1PMTXamHEsgvzTum-76" value="&lt;b&gt;埋点用户行为数据&lt;/b&gt;：用户在使用产品过程中，与客户产品交互过程中产生的数据，比如页面浏览、点击、停留、评论、点赞、收藏等。" style="text;html=1;strokeColor=none;fillColor=none;align=center;verticalAlign=middle;whiteSpace=wrap;rounded=0;" vertex="1" parent="1">
          <mxGeometry x="85" y="445" width="305" height="75" as="geometry" />
        </mxCell>
      </root>
    </mxGraphModel>
  </diagram>
</mxfile>
